<?xml version="1.0" encoding="UTF-8" standalone="no"?>
<!-- Created with Inkscape (http://www.inkscape.org/) -->

<svg
   xmlns:dc="http://purl.org/dc/elements/1.1/"
   xmlns:cc="http://creativecommons.org/ns#"
   xmlns:rdf="http://www.w3.org/1999/02/22-rdf-syntax-ns#"
   xmlns:svg="http://www.w3.org/2000/svg"
   xmlns="http://www.w3.org/2000/svg"
   xmlns:sodipodi="http://sodipodi.sourceforge.net/DTD/sodipodi-0.dtd"
   xmlns:inkscape="http://www.inkscape.org/namespaces/inkscape"
   width="25"
   height="25"
   id="svg2"
   version="1.1"
   inkscape:version="0.48.3.1 r9886"
   sodipodi:docname="Neues Dokument 1">
  <defs
     id="defs4" />
  <sodipodi:namedview
     id="base"
     pagecolor="#ffffff"
     bordercolor="#666666"
     borderopacity="1.0"
     inkscape:pageopacity="0.0"
     inkscape:pageshadow="2"
     inkscape:zoom="15.839192"
     inkscape:cx="16.245272"
     inkscape:cy="12.178114"
     inkscape:document-units="px"
     inkscape:current-layer="layer1"
     showgrid="false"
     inkscape:window-width="1366"
     inkscape:window-height="719"
     inkscape:window-x="0"
     inkscape:window-y="25"
     inkscape:window-maximized="1" />
  <metadata
     id="metadata7">
    <rdf:RDF>
      <cc:Work
         rdf:about="">
        <dc:format>image/svg+xml</dc:format>
        <dc:type
           rdf:resource="http://purl.org/dc/dcmitype/StillImage" />
        <dc:title></dc:title>
      </cc:Work>
    </rdf:RDF>
  </metadata>
  <g
     inkscape:label="Ebene 1"
     inkscape:groupmode="layer"
     id="layer1"
     transform="translate(0,-1027.3622)">
    <path
       sodipodi:type="arc"
       style="fill:#782121;stroke:#000000;stroke-opacity:1;stroke-width:0.4;stroke-miterlimit:4;stroke-dasharray:none"
       id="path3011"
       sodipodi:cx="16.225574"
       sodipodi:cy="2.1452987"
       sodipodi:rx="1.9571706"
       sodipodi:ry="1.7046324"
       d="m 18.182745,2.1452987 a 1.9571706,1.7046324 0 1 1 -3.914341,0 1.9571706,1.7046324 0 1 1 3.914341,0 z"
       transform="translate(0.69447988,1027.8673)" />
    <path
       sodipodi:type="arc"
       style="fill:#782121;stroke:#000000;stroke-opacity:1;stroke-width:0.4;stroke-miterlimit:4;stroke-dasharray:none"
       id="path3013"
       sodipodi:cx="8.1759224"
       sodipodi:cy="2.429404"
       sodipodi:rx="1.7993342"
       sodipodi:ry="1.7361997"
       d="m 9.9752566,2.429404 a 1.7993342,1.7361997 0 1 1 -3.5986684,0 1.7993342,1.7361997 0 1 1 3.5986684,0 z"
       transform="translate(-0.18940362,1027.4885)" />
    <path
       sodipodi:type="arc"
       style="fill:#782121;stroke:#000000;stroke-opacity:1;stroke-width:0.38961423;stroke-miterlimit:4;stroke-dasharray:none"
       id="path3005"
       sodipodi:cx="12.721609"
       sodipodi:cy="12.341526"
       sodipodi:rx="5.524272"
       sodipodi:ry="7.2289042"
       d="m 18.245881,12.341526 a 5.524272,7.2289042 0 1 1 -11.0485438,0 5.524272,7.2289042 0 1 1 11.0485438,0 z"
       transform="matrix(1.0971428,0,0,0.96069869,-1.2673807,1029.899)" />
    <path
       sodipodi:type="arc"
       style="fill:#782121;stroke:#000000;stroke-opacity:1;stroke-width:0.35188931;stroke-miterlimit:4;stroke-dasharray:none"
       id="path3009"
       sodipodi:cx="11.869292"
       sodipodi:cy="6.2174759"
       sodipodi:rx="4.5456862"
       sodipodi:ry="2.8094869"
       d="m 16.414979,6.2174759 a 4.5456862,2.8094869 0 1 1 -9.091373,0 4.5456862,2.8094869 0 1 1 9.091373,0 z"
       transform="matrix(1,0,0,1.2921348,0.88388348,1024.662)" />
    <path
       sodipodi:type="arc"
       style="fill:#782121;stroke:#000000;stroke-opacity:1;stroke-width:0.4;stroke-miterlimit:4;stroke-dasharray:none"
       id="path3015"
       sodipodi:cx="21.623577"
       sodipodi:cy="8.0168104"
       sodipodi:rx="4.5772538"
       sodipodi:ry="2.1465743"
       d="m 26.200831,8.0168104 a 4.5772538,2.1465743 0 1 1 -9.154508,0 4.5772538,2.1465743 0 1 1 9.154508,0 z"
       transform="matrix(0.82613946,-0.5634657,0.5634657,0.82613946,-2.0204015,1041.5716)" />
    <path
       sodipodi:type="arc"
       style="fill:#782121;stroke:#000000;stroke-opacity:1;stroke-width:0.4;stroke-miterlimit:4;stroke-dasharray:none"
       id="path3015-6"
       sodipodi:cx="21.623577"
       sodipodi:cy="8.0168104"
       sodipodi:rx="4.5772538"
       sodipodi:ry="2.1465743"
       d="m 26.200831,8.0168104 a 4.5772538,2.1465743 0 1 1 -9.154508,0 4.5772538,2.1465743 0 1 1 9.154508,0 z"
       transform="matrix(-0.77355672,-0.63372708,0.63372708,-0.77355672,16.88676,1055.6628)" />
    <path
       sodipodi:type="arc"
       style="fill:#d35f5f"
       id="path3055"
       sodipodi:cx="12.879445"
       sodipodi:cy="6.3753123"
       sodipodi:rx="2.588516"
       sodipodi:ry="1.3889598"
       d="m 15.467961,6.3753123 a 2.588516,1.3889598 0 1 1 -5.177032,0 2.588516,1.3889598 0 1 1 5.177032,0 z"
       transform="translate(0,1027.3622)" />
    <path
       sodipodi:type="arc"
       style="fill:#ffffff;stroke:#000000;stroke-width:0.18599622;stroke-miterlimit:4;stroke-opacity:1;stroke-dasharray:none"
       id="path3057-6"
       sodipodi:cx="11.616755"
       sodipodi:cy="4.1656036"
       sodipodi:rx="0.82074893"
       sodipodi:ry="1.0101526"
       d="m 12.437503,4.1656036 a 0.82074893,1.0101526 0 1 1 -1.641497,0 0.82074893,1.0101526 0 1 1 1.641497,0 z"
       transform="matrix(1,0,0,1.15625,2.5885157,1026.5851)" />
    <path
       sodipodi:type="arc"
       style="fill:#000000;stroke:none;stroke-width:0.20000000000000001;stroke-miterlimit:4;stroke-opacity:1;stroke-dasharray:none;fill-opacity:1"
       id="path3845"
       sodipodi:cx="14.55251"
       sodipodi:cy="4.9547853"
       sodipodi:rx="0.53664356"
       sodipodi:ry="0.53664356"
       d="m 15.089154,4.9547853 a 0.53664356,0.53664356 0 1 1 -1.073287,0 0.53664356,0.53664356 0 1 1 1.073287,0 z"
       transform="translate(-0.3158667,1027.0208)" />
    <path
       sodipodi:type="arc"
       style="fill:#ffffff;stroke:#000000;stroke-width:0.18599622;stroke-miterlimit:4;stroke-opacity:1;stroke-dasharray:none"
       id="path3057-6-1"
       sodipodi:cx="11.616755"
       sodipodi:cy="4.1656036"
       sodipodi:rx="0.82074893"
       sodipodi:ry="1.0101526"
       d="m 12.437503,4.1656036 a 0.82074893,1.0101526 0 1 1 -1.641497,0 0.82074893,1.0101526 0 1 1 1.641497,0 z"
       transform="matrix(1,0,0,1.15625,-0.06313478,1026.522)" />
    <path
       sodipodi:type="arc"
       style="fill:#000000;fill-opacity:1;stroke:none"
       id="path3845-9"
       sodipodi:cx="14.55251"
       sodipodi:cy="4.9547853"
       sodipodi:rx="0.53664356"
       sodipodi:ry="0.53664356"
       d="m 15.089154,4.9547853 a 0.53664356,0.53664356 0 1 1 -1.073287,0 0.53664356,0.53664356 0 1 1 1.073287,0 z"
       transform="translate(-2.9675168,1026.9577)" />
    <path
       sodipodi:type="arc"
       style="fill:#000000;fill-opacity:1;stroke:none"
       id="path3886"
       sodipodi:cx="13.16355"
       sodipodi:cy="5.7439671"
       sodipodi:rx="0.72604716"
       sodipodi:ry="0.69447988"
       d="m 13.889598,5.7439671 a 0.72604716,0.69447988 0 1 1 -1.452095,0 0.72604716,0.69447988 0 1 1 1.452095,0 z"
       transform="translate(-0.31567267,1027.2359)" />
    <path
       style="fill:none;stroke:#000000;stroke-width:0.2;stroke-linecap:butt;stroke-linejoin:miter;stroke-miterlimit:4;stroke-opacity:1;stroke-dasharray:none"
       d="m 12.563772,6.1227743 c 0.925973,1.1364216 -0.989108,1.5783633 -2.146574,0.7576144"
       id="path3888"
       inkscape:connector-curvature="0"
       transform="translate(0,1027.3622)"
       sodipodi:nodetypes="cc" />
    <path
       style="fill:none;stroke:#000000;stroke-width:0.2;stroke-linecap:butt;stroke-linejoin:miter;stroke-miterlimit:4;stroke-opacity:1;stroke-dasharray:none"
       d="m 13.001944,1033.5264 c -0.925973,1.1364 0.989108,1.5784 2.146574,0.7576"
       id="path3888-7"
       inkscape:connector-curvature="0"
       sodipodi:nodetypes="cc" />
    <path
       sodipodi:type="arc"
       style="fill:#782121;stroke:#000000;stroke-opacity:1;stroke-width:0.30625477;stroke-miterlimit:4;stroke-dasharray:none"
       id="path2985"
       sodipodi:cx="5.3980026"
       sodipodi:cy="21.022524"
       sodipodi:rx="3.4408321"
       sodipodi:ry="3.3461304"
       d="m 8.8388348,21.022524 a 3.4408321,3.3461304 0 1 1 -6.8816643,0 3.4408321,3.3461304 0 1 1 6.8816643,0 z"
       transform="matrix(1.3394495,0,0,1.2735849,0.03011928,1021.2004)" />
    <path
       sodipodi:type="arc"
       style="fill:#d35f5f"
       id="path3035"
       sodipodi:cx="7.0395007"
       sodipodi:cy="20.769987"
       sodipodi:rx="2.4306796"
       sodipodi:ry="2.2097087"
       d="m 9.4701803,20.769987 a 2.4306796,2.2097087 0 1 1 -4.8613591,0 2.4306796,2.2097087 0 1 1 4.8613591,0 z"
       transform="translate(0,1027.3622)" />
    <path
       transform="matrix(1.3211009,0,0,1.2924528,11.651218,1020.8038)"
       sodipodi:type="arc"
       style="fill:#782121;stroke:#000000;stroke-opacity:1;stroke-width:0.30611503;stroke-miterlimit:4;stroke-dasharray:none"
       id="path2985-6"
       sodipodi:cx="5.3980026"
       sodipodi:cy="21.022524"
       sodipodi:rx="3.4408321"
       sodipodi:ry="3.3461304"
       d="m 8.8388348,21.022524 a 3.4408321,3.3461304 0 1 1 -6.8816643,0 3.4408321,3.3461304 0 1 1 6.8816643,0 z" />
    <path
       transform="translate(11.963994,1027.1728)"
       sodipodi:type="arc"
       style="fill:#d35f5f"
       id="path3035-6"
       sodipodi:cx="7.0395007"
       sodipodi:cy="20.769987"
       sodipodi:rx="2.4306796"
       sodipodi:ry="2.2097087"
       d="m 9.4701803,20.769987 a 2.4306796,2.2097087 0 1 1 -4.8613591,0 2.4306796,2.2097087 0 1 1 4.8613591,0 z" />
  </g>
</svg>
